<?xml version="1.0" standalone="no"?>
<!DOCTYPE svg PUBLIC "-//W3C//DTD SVG 1.1//EN" "http://www.w3.org/Graphics/SVG/1.1/DTD/svg11.dtd" >
<svg>
<metadata>
Created by FontForge 20090622 at Mon Aug 29 15:16:18 2016
 By deploy user
Copyright &#194;&#169; 1991, 2002 Adobe Systems Incorporated.  All Rights Reserved. &#194;&#169; 1981, 2002 Heidelberger Druckmaschinen AG. All rights reserved.
</metadata>
<defs>
<font id="KabelLTStd-Black" horiz-adv-x="260" >
  <font-face 
    font-family="Kabel LT Std Black"
    font-weight="900"
    font-stretch="normal"
    units-per-em="1000"
    panose-1="2 13 8 2 2 2 4 2 2 4"
    ascent="732"
    descent="-268"
    x-height="518"
    cap-height="720"
    bbox="-152 -250 1006 989"
    underline-thickness="50"
    underline-position="-50"
    unicode-range="U+0020-U+FB02"
  />
<missing-glyph horiz-adv-x="500" 
d="M0 0v700h500v-700h-500zM250 395l170 255h-340zM280 350l170 -255v510zM80 50h340l-170 255zM50 605v-510l170 255z" />
    <glyph glyph-name="fi" unicode="fi" horiz-adv-x="574" 
d="M21 368v150h43q0 36 2 56.5t12.5 54t30 52t58.5 33t95 14.5q24 0 51 -3v-163q-47 0 -58.5 -6t-16.5 -38h73v-150h-73v-368h-174v368h-43zM357 0v518h174v-518h-174zM357 564v156h174v-156h-174z" />
    <glyph glyph-name="fl" unicode="fl" horiz-adv-x="574" 
d="M21 368v150h43q0 36 2 56.5t12.5 54t30 52t58.5 33t95 14.5q24 0 51 -3v-163q-47 0 -58.5 -6t-16.5 -38h73v-150h-73v-368h-174v368h-43zM357 0v720h174v-720h-174z" />
    <glyph glyph-name=".notdef" horiz-adv-x="500" 
d="M0 0v700h500v-700h-500zM250 395l170 255h-340zM280 350l170 -255v510zM80 50h340l-170 255zM50 605v-510l170 255z" />
    <glyph glyph-name=".null" horiz-adv-x="0" 
 />
    <glyph glyph-name="nonmarkingreturn" horiz-adv-x="333" 
 />
    <glyph glyph-name="space" unicode=" " horiz-adv-x="268" 
 />
    <glyph glyph-name="exclam" unicode="!" horiz-adv-x="296" 
d="M61 0v182h174v-182h-174zM61 228v492h174v-492h-174z" />
    <glyph glyph-name="quotedbl" unicode="&#x22;" horiz-adv-x="407" 
d="M235 370v350h156v-350h-156zM16 370v350h156v-350h-156z" />
    <glyph glyph-name="numbersign" unicode="#" horiz-adv-x="536" 
d="M294 293l14 96h-66l-14 -96h66zM22 175v118h82l14 96h-66v118h82l24 175h124l-24 -175h66l24 175h124l-24 -175h66v-118h-82l-14 -96h66v-118h-82l-24 -175h-124l24 175h-66l-24 -175h-124l24 175h-66z" />
    <glyph glyph-name="dollar" unicode="$" horiz-adv-x="536" 
d="M209 -70v56q-65 11 -111 35t-83 71l88 138q35 -56 106 -74v101q-84 10 -143.5 64.5t-59.5 148.5q0 89 48.5 152.5t154.5 73.5v54h124v-54q57 -14 92 -34.5t75 -63.5l-82 -135q-18 27 -42.5 43t-42.5 20v-121q43 -9 73 -21t61 -34t47 -59.5t16 -89.5q0 -92 -52.5 -148
t-144.5 -67v-56h-124zM209 425v111q-59 -6 -59 -58q0 -38 59 -53zM333 243v-93q24 1 38.5 12.5t14.5 32.5q0 19 -13.5 31t-24 14.5t-15.5 2.5z" />
    <glyph glyph-name="percent" unicode="%" horiz-adv-x="741" 
d="M175 378q39 0 39 106t-39 106t-39 -106t39 -106zM231 -14l204 710h76l-204 -710h-76zM566 92q39 0 39 106t-39 106t-39 -106t39 -106zM175 272q-64 0 -104.5 60.5t-40.5 151.5t40.5 151.5t104.5 60.5t104.5 -60.5t40.5 -151.5t-40.5 -151.5t-104.5 -60.5zM566 -14
q-64 0 -104.5 60.5t-40.5 151.5t40.5 151.5t104.5 60.5t104.5 -60.5t40.5 -151.5t-40.5 -151.5t-104.5 -60.5z" />
    <glyph glyph-name="ampersand" unicode="&#x26;" horiz-adv-x="648" 
d="M376 389l44 -49l108 109l112 -121l-107 -113l94 -104l-118 -123l-98 109q-25 -24 -41 -38t-43 -33t-54.5 -28.5t-56.5 -9.5q-77 0 -136 57t-59 131q0 34 14.5 65t29.5 48t51 53l43 43l-20 26q-52 67 -52 136q0 86 61.5 138.5t148.5 52.5q85 0 135.5 -48t50.5 -125
q0 -41 -20.5 -79t-37.5 -54t-49 -43zM303 220l-48 53l-56 -55q-8 -8 -8 -25q0 -11 9 -21t26 -10q16 0 29 13zM290 490q43 34 43 70q0 21 -14 31.5t-29 10.5q-19 0 -33 -13t-14 -33q0 -27 47 -66z" />
    <glyph glyph-name="quotesingle" unicode="'" horiz-adv-x="242" 
d="M43 370v350h156v-350h-156z" />
    <glyph glyph-name="parenleft" unicode="(" horiz-adv-x="352" 
d="M180 750l179 -46q-75 -116 -111 -208t-36 -205q0 -112 35.5 -199.5t111.5 -191.5l-166 -68q-74 96 -112.5 215t-38.5 244t33.5 227t104.5 232z" />
    <glyph glyph-name="parenright" unicode=")" horiz-adv-x="352" 
d="M-7 704l179 46q71 -130 104.5 -232t33.5 -227t-38.5 -244t-112.5 -215l-166 68q76 104 111.5 191.5t35.5 199.5q0 113 -36 205t-111 208z" />
    <glyph glyph-name="asterisk" unicode="*" horiz-adv-x="278" 
d="M9 592l29 90l52 -30v68h100v-68l54 31l25 -91l-69 -21l51 -53l-78 -50l-34 56l-41 -56l-71 50l44 53z" />
    <glyph glyph-name="plus" unicode="+" horiz-adv-x="600" 
d="M232 321v185h136v-185h185v-136h-185v-185h-136v185h-185v136h185z" />
    <glyph glyph-name="comma" unicode="," horiz-adv-x="268" 
d="M93 182h166l-94 -350h-156z" />
    <glyph glyph-name="hyphen" unicode="-" horiz-adv-x="334" 
d="M42 184v166h250v-166h-250z" />
    <glyph glyph-name="period" unicode="." horiz-adv-x="268" 
d="M47 0v182h174v-182h-174z" />
    <glyph glyph-name="slash" unicode="/" horiz-adv-x="278" 
d="M305 738l-214 -756h-118l214 756h118z" />
    <glyph glyph-name="zero" unicode="0" horiz-adv-x="536" 
d="M268 168q67 0 67 174q0 15 -0.5 28.5t-4 42t-10 48.5t-20 36.5t-32.5 16.5q-23 0 -38.5 -21.5t-20.5 -57t-6.5 -54.5t-1.5 -39q0 -174 67 -174zM27 341q0 171 69 263t172 92t172 -92t69 -263t-69 -263t-172 -92t-172 92t-69 263z" />
    <glyph glyph-name="one" unicode="1" horiz-adv-x="352" 
d="M296 682v-682h-174v456q-28 -21 -112 -32v182q42 9 72 31t40 45h174z" />
    <glyph glyph-name="two" unicode="2" horiz-adv-x="519" 
d="M236 408l-68 -130q-72 29 -111 72.5t-39 114.5q0 102 66 166.5t174 64.5q100 0 164 -60t64 -143q0 -59 -20 -105t-73 -126l-58 -88h166v-174h-474l219 316q70 101 70 149q0 31 -19 51t-48 20q-22 0 -41.5 -14t-19.5 -49q0 -23 13.5 -41t34.5 -24z" />
    <glyph glyph-name="three" unicode="3" horiz-adv-x="444" 
d="M-8 103l111 106q10 -17 32.5 -33t49.5 -16q25 0 41 15.5t16 41.5q0 20 -17.5 38t-60.5 18h-32v136q110 0 110 61q0 24 -15.5 38t-44.5 14q-47 0 -77 -42l-106 107q79 109 198 109q100 0 159.5 -58.5t59.5 -139.5q0 -45 -20.5 -87t-60.5 -65q36 -20 58.5 -63.5t22.5 -91.5
q0 -79 -55.5 -142t-163.5 -63q-64 0 -121 31t-84 86z" />
    <glyph glyph-name="four" unicode="4" horiz-adv-x="500" 
d="M-10 137l165 545h170l-122 -379h72v169h166v-169h34v-166h-34v-137h-166v137h-285z" />
    <glyph glyph-name="five" unicode="5" horiz-adv-x="463" 
d="M63 286v396h397l-67 -174h-164v-59q29 -4 48 -7.5t52 -17t53 -34.5t36 -60.5t16 -93.5q0 -66 -22 -116.5t-58.5 -78.5t-76.5 -41.5t-83 -13.5q-103 0 -191 91l90 132q2 -1 19.5 -15.5t38 -24t44.5 -9.5q25 0 45 13.5t20 44.5q0 40 -37 62t-85 22q-32 0 -71 -15z" />
    <glyph glyph-name="six" unicode="6" horiz-adv-x="536" 
d="M262 696l171 -55q-95 -114 -124 -171q75 -1 139.5 -59t64.5 -166q0 -105 -68 -182t-185 -77q-41 0 -81 13.5t-76 40t-58 74t-22 107.5q0 179 239 475zM339 239q0 29 -21 50t-50 21t-50 -21t-21 -50t21 -50t50 -21t50 21t21 50z" />
    <glyph glyph-name="seven" unicode="7" horiz-adv-x="481" 
d="M21 500v182h460v-92l-268 -590h-192l229 500h-229z" />
    <glyph glyph-name="eight" unicode="8" horiz-adv-x="500" 
d="M187 477q0 -26 18.5 -44.5t44.5 -18.5t44.5 18.5t18.5 44.5t-18.5 44.5t-44.5 18.5t-44.5 -18.5t-18.5 -44.5zM31 498q0 81 59.5 139.5t159.5 58.5t159.5 -58.5t59.5 -139.5q0 -104 -75 -155q36 -21 55.5 -64t19.5 -88q0 -79 -55.5 -142t-163.5 -63t-163.5 63t-55.5 142
q0 45 19.5 88t55.5 64q-75 51 -75 155zM187 215q0 -26 18.5 -44.5t44.5 -18.5t44.5 18.5t18.5 44.5t-18.5 44.5t-44.5 18.5t-44.5 -18.5t-18.5 -44.5z" />
    <glyph glyph-name="nine" unicode="9" horiz-adv-x="536" 
d="M274 -14l-171 55q95 114 124 171q-75 1 -139.5 59t-64.5 166q0 105 68 182t185 77q41 0 81 -13.5t76 -40t58 -74t22 -107.5q0 -179 -239 -475zM197 443q0 -29 21 -50t50 -21t50 21t21 50t-21 50t-50 21t-50 -21t-21 -50z" />
    <glyph glyph-name="colon" unicode=":" horiz-adv-x="268" 
d="M47 0v182h174v-182h-174zM47 336v182h174v-182h-174z" />
    <glyph glyph-name="semicolon" unicode=";" horiz-adv-x="268" 
d="M74 182h166l-94 -350h-156zM66 336v182h174v-182h-174z" />
    <glyph glyph-name="less" unicode="&#x3c;" horiz-adv-x="600" 
d="M553 124v-132l-506 198v126l506 198v-132l-336 -129z" />
    <glyph glyph-name="equal" unicode="=" horiz-adv-x="600" 
d="M553 443v-136h-506v136h506zM553 199v-136h-506v136h506z" />
    <glyph glyph-name="greater" unicode="&#x3e;" horiz-adv-x="600" 
d="M47 -8v132l336 129l-336 129v132l506 -198v-126z" />
    <glyph glyph-name="question" unicode="?" horiz-adv-x="370" 
d="M95 228v94q0 44 10.5 78t23.5 50t23.5 30.5t10.5 24.5q0 39 -36 39q-27 0 -51 -43l-76 134q17 47 65.5 75t100.5 28q82 0 135.5 -51t53.5 -133q0 -40 -13.5 -74t-29.5 -54.5t-29.5 -54.5t-13.5 -74v-69h-174zM95 0v182h174v-182h-174z" />
    <glyph glyph-name="at" unicode="@" horiz-adv-x="800" 
d="M407 431q-33 0 -57 -27t-24 -63q0 -27 17 -46.5t43 -19.5q35 0 60 26.5t25 60.5q0 30 -18.5 49.5t-45.5 19.5zM614 146h114q-106 -164 -318 -164q-166 0 -277 106t-111 272q0 176 111.5 277t280.5 101q57 0 110.5 -12t99.5 -36.5t80.5 -59t54 -83.5t19.5 -107
q0 -64 -20 -114.5t-49.5 -80t-67 -49t-69 -26.5t-59.5 -7q-27 0 -44.5 12t-18.5 34h-2q-28 -46 -89 -46q-68 0 -109.5 49.5t-41.5 118.5q0 89 53.5 150.5t135.5 61.5q69 0 107 -53l9 37h85l-40 -214q-5 -28 -5 -36q0 -10 8.5 -18t24.5 -8q35 0 57.5 40t22.5 119
q0 110 -69.5 166t-182.5 56q-121 0 -200.5 -77.5t-79.5 -194.5q0 -122 80 -197t196 -75q123 0 204 58z" />
    <glyph glyph-name="A" unicode="A" horiz-adv-x="704" 
d="M-1 0l252 720h212l242 -720h-203l-26 80h-248l-26 -80h-203zM420 258l-67 200h-2l-65 -200h134z" />
    <glyph glyph-name="B" unicode="B" horiz-adv-x="574" 
d="M243 560v-121h45q73 0 73 61q0 60 -73 60h-45zM55 0v720h286q102 0 155 -57t53 -143q0 -38 -9.5 -67t-28.5 -47.5t-28 -24.5t-27 -16l7 -4q7 -4 11.5 -7t13.5 -9.5t15 -13.5l14.5 -16.5t14 -21t11 -25.5t8 -31t2.5 -36q0 -30 -11 -62t-35 -64.5t-71 -53.5t-110 -21h-271z
M243 289v-129h48q39 0 54.5 21t15.5 46q0 62 -76 62h-42z" />
    <glyph glyph-name="C" unicode="C" horiz-adv-x="519" 
d="M494 211l-17 -217q-48 -12 -98 -12q-162 0 -258 110.5t-96 274.5q0 155 101 263t255 108q63 0 92 -8l13 -219q-13 11 -42 18t-50 7q-73 0 -121 -47.5t-48 -120.5q0 -91 50 -137.5t121 -46.5q64 0 98 27z" />
    <glyph glyph-name="D" unicode="D" horiz-adv-x="593" 
d="M55 0v720h171q83 0 150 -31.5t108 -83t62.5 -113.5t21.5 -128q0 -156 -101 -260t-263 -104h-149zM243 530v-328q133 20 133 164q0 39 -9.5 71t-41 60t-82.5 33z" />
    <glyph glyph-name="E" unicode="E" horiz-adv-x="500" 
d="M55 0v720h386l29 -190h-227v-75h148v-190h-148v-75h252l-49 -190h-391z" />
    <glyph glyph-name="F" unicode="F" horiz-adv-x="444" 
d="M55 0v720h386l29 -190h-227v-75h148v-190h-148v-265h-188z" />
    <glyph glyph-name="G" unicode="G" horiz-adv-x="704" 
d="M639 674l-82 -182q-70 52 -162 52q-77 0 -130.5 -53.5t-53.5 -130.5t53.5 -130.5t130.5 -53.5q36 0 66 15v179h188v-349q-43 -18 -112 -28.5t-124 -10.5q-174 0 -284 99.5t-110 278.5q0 163 109.5 270.5t284.5 107.5q53 0 123.5 -20t102.5 -44z" />
    <glyph glyph-name="H" unicode="H" horiz-adv-x="630" 
d="M49 0v720h188v-252h156v252h188v-720h-188v274h-156v-274h-188z" />
    <glyph glyph-name="I" unicode="I" horiz-adv-x="278" 
d="M45 0v720h188v-720h-188z" />
    <glyph glyph-name="J" unicode="J" horiz-adv-x="370" 
d="M330 720v-522q0 -52 -12.5 -89t-32 -58t-51 -32.5t-61 -15t-71.5 -3.5h-79v190h31q53 0 70.5 22t17.5 78v430h188z" />
    <glyph glyph-name="K" unicode="K" horiz-adv-x="611" 
d="M55 0v720h188v-318h2l148 318h211l-152 -336l159 -384h-210l-156 379h-2v-379h-188z" />
    <glyph glyph-name="L" unicode="L" horiz-adv-x="500" 
d="M55 0v720h188v-530h252l-49 -190h-391z" />
    <glyph glyph-name="M" unicode="M" horiz-adv-x="778" 
d="M9 0l103 720h150l127 -280l131 280h150l99 -720h-192l-42 296h-2l-144 -301l-144 301h-2l-42 -296h-192z" />
    <glyph glyph-name="N" unicode="N" horiz-adv-x="648" 
d="M49 0v720h84l278 -317v317h188v-720h-90l-272 306v-306h-188z" />
    <glyph glyph-name="O" unicode="O" horiz-adv-x="778" 
d="M759 360q0 -156 -109.5 -267t-260.5 -111t-260.5 111t-109.5 267t109.5 267t260.5 111t260.5 -111t109.5 -267zM567 360q0 74 -52.5 129t-125.5 55t-125.5 -54t-52.5 -130t52.5 -130t125.5 -54t125.5 55t52.5 129z" />
    <glyph glyph-name="P" unicode="P" horiz-adv-x="574" 
d="M55 0v720h248q123 0 186.5 -70t63.5 -197q0 -139 -83 -202t-227 -61v-190h-188zM243 550v-178h36q45 0 65.5 25t20.5 64t-20.5 64t-65.5 25h-36z" />
    <glyph glyph-name="Q" unicode="Q" horiz-adv-x="796" 
d="M777 59l-147 -121q-38 34 -70 88q-69 -44 -171 -44q-151 0 -260.5 111t-109.5 267t109.5 267t260.5 111t260.5 -111t109.5 -267q0 -111 -61 -206q27 -43 79 -95zM567 360q0 74 -52.5 129t-125.5 55t-125.5 -54t-52.5 -130t52.5 -130t125.5 -54t125.5 55t52.5 129z" />
    <glyph glyph-name="R" unicode="R" horiz-adv-x="574" 
d="M55 0v720h247q110 0 176 -59.5t66 -171.5t-98 -177l138 -312h-212l-127 297h-2v-297h-188zM243 560v-178q113 0 113 89t-113 89z" />
    <glyph glyph-name="S" unicode="S" horiz-adv-x="426" 
d="M388 724v-190q-14 12 -40 19t-42 7q-70 0 -70 -58q0 -23 17 -43t41.5 -38.5t49 -41t41.5 -62t17 -91.5q0 -75 -22.5 -125.5t-64 -75t-86 -34t-103.5 -9.5q-23 0 -53 3.5t-37 3.5l-5 199q57 -16 89 -16q26 0 42 14.5t16 40.5q0 23 -16 44t-38.5 40.5t-45 44t-38.5 64.5
t-16 90q0 10 1 22t6 35.5t13.5 44.5t25.5 45t40 41t59.5 28.5t81.5 11.5q75 0 137 -14z" />
    <glyph glyph-name="T" unicode="T" horiz-adv-x="480" 
d="M-1 538l19 182h444l19 -182h-147v-538h-188v538h-147z" />
    <glyph glyph-name="U" unicode="U" horiz-adv-x="574" 
d="M40 234v486h188v-458q0 -86 59 -86t59 86v458h188v-486q0 -126 -63 -189t-184 -63t-184 63t-63 189z" />
    <glyph glyph-name="V" unicode="V" horiz-adv-x="611" 
d="M180 0l-181 720h196l109 -428h2l110 428h196l-188 -720h-244z" />
    <glyph glyph-name="W" unicode="W" horiz-adv-x="760" 
d="M101 0l-96 720h188l41 -299h2l144 299l144 -299h2l41 299h188l-96 -720h-150l-129 278l-129 -278h-150z" />
    <glyph glyph-name="X" unicode="X" horiz-adv-x="630" 
d="M627 720l-203 -356l208 -364h-220l-97 171l-97 -171h-220l207 364l-203 356h220l93 -163l92 163h220z" />
    <glyph glyph-name="Y" unicode="Y" horiz-adv-x="592" 
d="M202 317l-202 403h212l84 -176l84 176h212l-202 -403v-317h-188v317z" />
    <glyph glyph-name="Z" unicode="Z" horiz-adv-x="556" 
d="M11 530l32 190h502l-233 -530h232l-23 -190h-499l233 530h-244z" />
    <glyph glyph-name="bracketleft" unicode="[" horiz-adv-x="315" 
d="M50 -138v858h247v-150h-87v-558h87v-150h-247z" />
    <glyph glyph-name="backslash" unicode="\" horiz-adv-x="278" 
d="M187 -18l-214 756h118l214 -756h-118z" />
    <glyph glyph-name="bracketright" unicode="]" horiz-adv-x="315" 
d="M265 720v-858h-247v150h87v558h-87v150h247z" />
    <glyph glyph-name="asciicircum" unicode="^" horiz-adv-x="600" 
d="M65 317l173 365h124l173 -365h-133l-102 224l-102 -224h-133z" />
    <glyph glyph-name="underscore" unicode="_" horiz-adv-x="500" 
d="M500 -125h-500v50h500v-50z" />
    <glyph glyph-name="grave" unicode="`" 
d="M-23 720h136l66 -148h-82z" />
    <glyph glyph-name="a" unicode="a" horiz-adv-x="481" 
d="M63 388l21 123q110 7 142 7q112 0 162 -33t50 -130v-355h-150v38h-2q-8 -15 -37.5 -32.5t-74.5 -17.5q-68 0 -114.5 49t-46.5 133q0 71 48 123.5t131 52.5q48 0 76 -14q0 40 -18.5 54t-75.5 14q-34 0 -111 -12zM232 234q-22 0 -37.5 -15.5t-15.5 -37.5t15.5 -37.5
t37.5 -15.5t37.5 15.5t15.5 37.5t-15.5 37.5t-37.5 15.5z" />
    <glyph glyph-name="b" unicode="b" horiz-adv-x="593" 
d="M39 264v456h174v-232h2q10 16 47 29t75 13q40 0 79.5 -15t75 -44.5t58 -83t22.5 -122.5q0 -74 -23 -129.5t-62.5 -86.5t-86.5 -46t-101 -15t-96.5 11.5t-69 27.5t-46 43t-28.5 48.5t-14 54t-5.5 48.5t-0.5 43zM209 259q0 -40 28 -68.5t67 -28.5q38 0 66 28.5t28 68.5
t-28 68.5t-66 28.5q-39 0 -67 -28.5t-28 -68.5z" />
    <glyph glyph-name="c" unicode="c" horiz-adv-x="407" 
d="M382 515v-174q-21 15 -81 15q-48 0 -75 -23.5t-27 -70.5q0 -43 26 -71.5t82 -28.5q27 0 75 12v-174q-34 -12 -98 -12q-120 0 -189.5 76.5t-69.5 186.5q0 78 26 136t67.5 87.5t81.5 42.5t79 13q55 0 103 -15z" />
    <glyph glyph-name="d" unicode="d" horiz-adv-x="611" 
d="M195 259q0 -41 28.5 -69t69.5 -28t69 28t28 69t-28 69t-69 28t-69.5 -28t-28.5 -69zM568 720v-720h-174v54h-2q-42 -66 -135 -66q-97 0 -166.5 73t-69.5 181q0 133 70 210.5t184 77.5q77 0 119 -42v232h174z" />
    <glyph glyph-name="e" unicode="e" horiz-adv-x="519" 
d="M478 222l12 -170q-108 -64 -217 -64q-28 0 -59.5 7t-67.5 26.5t-64 48.5t-47 78t-19 110q0 67 25.5 120.5t66 85.5t87 49t92.5 17q48 0 87 -13.5t61.5 -31.5t41 -47t25.5 -46.5t15 -44.5l-261 -185q21 -14 60 -14q42 0 88.5 22.5t73.5 51.5zM186 256l141 106
q-14 18 -57 18q-38 0 -63 -25.5t-25 -70.5q0 -8 4 -28z" />
    <glyph glyph-name="f" unicode="f" horiz-adv-x="315" 
d="M21 368v150h43q0 36 2 56.5t12.5 54t30 52t58.5 33t95 14.5q24 0 51 -3v-163q-47 0 -58.5 -6t-16.5 -38h73v-150h-73v-368h-174v368h-43z" />
    <glyph glyph-name="g" unicode="g" horiz-adv-x="519" 
d="M14 -80l86 129q25 -30 65 -47.5t80 -17.5q29 0 48 15.5t19 41.5v24q-20 -6 -53 -6q-60 0 -106.5 21.5t-73.5 56t-40.5 73.5t-13.5 78q0 65 21 114t55 75.5t70.5 39.5t74.5 13q74 0 142 -12h106l-52 -78q16 -13 33 -56t17 -96q0 -39 -14.5 -74.5t-34.5 -53.5
q43 -49 43 -122q0 -85 -63 -149.5t-183 -64.5q-117 0 -226 96zM191 294q0 -26 19 -45.5t45 -19.5q25 0 44 19.5t19 45.5q0 27 -19 46.5t-44 19.5q-26 0 -45 -19.5t-19 -46.5z" />
    <glyph glyph-name="h" unicode="h" horiz-adv-x="537" 
d="M43 0v720h174v-250q55 60 127 60q62 0 106 -36.5t44 -112.5v-381h-174v284q0 72 -53 72q-50 0 -50 -72v-284h-174z" />
    <glyph glyph-name="i" unicode="i" 
d="M43 0v518h174v-518h-174zM43 564v156h174v-156h-174z" />
    <glyph glyph-name="j" unicode="j" horiz-adv-x="278" 
d="M61 95v423h174v-416q0 -51 -2 -77.5t-10.5 -66t-30.5 -71.5t-59 -63l-131 108q17 20 26.5 34t21 50t11.5 79zM61 564v156h174v-156h-174z" />
    <glyph glyph-name="k" unicode="k" horiz-adv-x="537" 
d="M43 0v720h174v-446h2l107 244h192l-107 -245l129 -273h-200l-121 267h-2v-267h-174z" />
    <glyph glyph-name="l" unicode="l" 
d="M43 0v720h174v-720h-174z" />
    <glyph glyph-name="m" unicode="m" horiz-adv-x="796" 
d="M39 0v518h174v-48h2q50 60 122 60q71 0 122 -60q57 60 137 60q78 0 119.5 -44t41.5 -105v-381h-174v278q0 14 -1 22.5t-5 21.5t-14.5 19.5t-27.5 6.5q-14 0 -24 -4.5t-15 -10t-7.5 -16t-3 -16t-0.5 -16.5v-285h-174v278q0 14 -1 22.5t-5 21.5t-14.5 19.5t-27.5 6.5
q-14 0 -24 -4.5t-15 -10t-7.5 -16t-3 -16t-0.5 -16.5v-285h-174z" />
    <glyph glyph-name="n" unicode="n" horiz-adv-x="537" 
d="M43 0v518h174v-48q55 60 127 60q62 0 106 -36.5t44 -112.5v-381h-174v284q0 72 -53 72q-50 0 -50 -72v-284h-174z" />
    <glyph glyph-name="o" unicode="o" horiz-adv-x="574" 
d="M16 259q0 113 79 192t192 79t192 -79t79 -192t-79 -192t-192 -79t-192 79t-79 192zM190 259q0 -41 28 -69t69 -28t69 28t28 69t-28 69t-69 28t-69 -28t-28 -69z" />
    <glyph glyph-name="p" unicode="p" horiz-adv-x="611" 
d="M43 -168v686h174v-54h2q42 66 135 66q97 0 166.5 -73t69.5 -181q0 -133 -70 -210.5t-184 -77.5q-77 0 -119 42v-198h-174zM416 259q0 41 -28.5 69t-69.5 28q-40 0 -68.5 -28t-28.5 -69t28.5 -69t68.5 -28q41 0 69.5 28t28.5 69z" />
    <glyph glyph-name="q" unicode="q" horiz-adv-x="611" 
d="M568 518v-686h-174v198q-42 -42 -119 -42q-114 0 -184 77.5t-70 210.5q0 108 69.5 181t166.5 73q93 0 135 -66h2v54h174zM195 259q0 -41 28.5 -69t69.5 -28t69 28t28 69t-28 69t-69 28t-69.5 -28t-28.5 -69z" />
    <glyph glyph-name="r" unicode="r" horiz-adv-x="352" 
d="M43 0v518h174v-52h2q16 30 41 41t71 11v-174q-68 0 -91 -22t-23 -71v-251h-174z" />
    <glyph glyph-name="s" unicode="s" horiz-adv-x="333" 
d="M28 0v161q26 -13 52 -13q46 0 46 32q0 14 -16.5 32t-37 35.5t-37 51t-16.5 74.5q0 80 48 118.5t131 38.5q63 0 101 -4v-164q-27 18 -59 18q-16 0 -27.5 -9.5t-11.5 -25.5q0 -12 17.5 -31t39 -39t39 -55.5t17.5 -75.5q0 -156 -191 -156q-40 0 -95 12z" />
    <glyph glyph-name="t" unicode="t" horiz-adv-x="333" 
d="M59 518v64l174 100v-164h64v-150h-64v-142q0 -17 1.5 -25.5t13.5 -17.5t36 -9q14 0 26 4l-26 -178q-36 0 -52.5 0.5t-44 2t-40 4.5t-30.5 9t-26 16t-17 23.5t-12 32.5t-3 43v237h-36v150h36z" />
    <glyph glyph-name="u" unicode="u" horiz-adv-x="537" 
d="M494 518v-518h-174v48q-55 -60 -127 -60q-62 0 -106 36.5t-44 112.5v381h174v-284q0 -72 53 -72q50 0 50 72v284h174z" />
    <glyph glyph-name="v" unicode="v" horiz-adv-x="462" 
d="M121 0l-119 518h182l46 -292h2l46 292h182l-119 -518h-220z" />
    <glyph glyph-name="w" unicode="w" horiz-adv-x="704" 
d="M117 0l-115 518h182l45 -236h2l68 236h124l52 -236h2l43 236h182l-120 -518h-182l-53 218h-2l-50 -218h-178z" />
    <glyph glyph-name="x" unicode="x" horiz-adv-x="500" 
d="M144 263l-151 255h206l50 -96l42 96h206l-147 -255l157 -263h-206l-48 112l-49 -112h-206z" />
    <glyph glyph-name="y" unicode="y" horiz-adv-x="519" 
d="M182 28l-180 490h192l74 -251h2l59 251h188l-207 -694h-188z" />
    <glyph glyph-name="z" unicode="z" horiz-adv-x="444" 
d="M14 344v174h405l-150 -344h165l-34 -174h-390l145 344h-141z" />
    <glyph glyph-name="braceleft" unicode="{" horiz-adv-x="315" 
d="M304 720v-150h-33q-36 0 -36 -65v-116q-1 -92 -124 -97v-2q123 -5 124 -97v-116q0 -65 36 -65h33v-150h-96q-47 0 -90 36.5t-43 101.5v155q0 61 -64 61v150q64 0 64 61v155q0 65 43 101.5t90 36.5h96z" />
    <glyph glyph-name="bar" unicode="|" horiz-adv-x="222" 
d="M43 -250v1000h136v-1000h-136z" />
    <glyph glyph-name="braceright" unicode="}" horiz-adv-x="315" 
d="M11 570v150h96q47 0 90 -36.5t43 -101.5v-155q0 -61 64 -61v-150q-64 0 -64 -61v-155q0 -65 -43 -101.5t-90 -36.5h-96v150h33q36 0 36 65v116q1 92 124 97v2q-123 5 -124 97v116q0 65 -36 65h-33z" />
    <glyph glyph-name="asciitilde" unicode="~" horiz-adv-x="600" 
d="M495 354l36 -112q-20 -27 -33 -42t-38 -29.5t-54 -14.5q-40 0 -106 35t-111 35q-50 0 -84 -74l-36 112q45 86 125 86q41 0 116.5 -35t96.5 -35q19 0 36.5 13t26.5 25t25 36z" />
    <glyph glyph-name="uni00A0" unicode="&#xa0;" horiz-adv-x="268" 
 />
    <glyph glyph-name="exclamdown" unicode="&#xa1;" horiz-adv-x="296" 
d="M235 562v-182h-174v182h174zM235 334v-492h-174v492h174z" />
    <glyph glyph-name="cent" unicode="&#xa2;" horiz-adv-x="536" 
d="M447 518v-178q-21 16 -82 16q-102 0 -102 -99q0 -43 26 -71.5t82 -28.5q25 0 76 12v-174q-25 -8 -58 -9v-43h-124v51q-83 26 -129.5 95t-46.5 157q0 118 51 185.5t125 86.5v52h124v-40q10 0 58 -12z" />
    <glyph glyph-name="sterling" unicode="&#xa3;" horiz-adv-x="536" 
d="M17 0l60 228h-22v156h67l6 25q9 39 15 60.5t17.5 56t22.5 55t29.5 45.5t40 38t51.5 22.5t66 9.5q52 0 91 -14v-156q-12 4 -39 4q-57 0 -78 -20.5t-36 -79.5l-12 -46h138v-156h-187l-15 -62h287l-52 -166h-450z" />
    <glyph glyph-name="currency" unicode="&#xa4;" horiz-adv-x="536" 
d="M79 474l-55 55l58 58l55 -55q58 41 131 41t131 -41l55 55l58 -58l-55 -55q43 -61 43 -134q0 -72 -41 -130l53 -53l-58 -58l-53 53q-59 -43 -133 -43q-73 0 -134 42l-52 -52l-58 58l53 53q-41 60 -41 130q0 75 43 134zM148 340q0 -56 34.5 -93.5t85.5 -37.5q53 0 86.5 38
t33.5 93q0 56 -33.5 94.5t-86.5 38.5q-52 0 -86 -38t-34 -95z" />
    <glyph glyph-name="yen" unicode="&#xa5;" horiz-adv-x="536" 
d="M75 92v94h108v57h-108v94h90l-166 345h192l77 -164l77 164h192l-166 -345h90v-94h-108v-57h108v-94h-108v-92h-170v92h-108z" />
    <glyph glyph-name="brokenbar" unicode="&#xa6;" horiz-adv-x="222" 
d="M43 -175v350h136v-350h-136zM43 325v350h136v-350h-136z" />
    <glyph glyph-name="section" unicode="&#xa7;" horiz-adv-x="500" 
d="M60 43l82 85q55 -42 95 -42q23 0 37 11t14 28q0 13 -7.5 20t-28.5 20l-146 89q-82 50 -82 129q0 67 72 109q-26 30 -26 62q0 56 48 99t144 43q95 0 185 -53l-85 -86q-59 39 -98 39q-22 0 -36 -10.5t-14 -24.5q0 -19 24 -33l154 -95q84 -52 84 -127q0 -61 -66 -115
q22 -37 22 -72q0 -45 -49.5 -89t-142.5 -44q-98 0 -180 57zM200 336l100 -61q15 -9 28 -19q18 8 18 36q0 17 -10 30t-42 32l-90 54q-7 4 -12.5 7.5t-11 7.5t-9.5 6q-17 -9 -17 -37t46 -56z" />
    <glyph glyph-name="dieresis" unicode="&#xa8;" 
d="M154 706h150v-124h-150v124zM-44 706h150v-124h-150v124z" />
    <glyph glyph-name="copyright" unicode="&#xa9;" horiz-adv-x="800" 
d="M579 415h-96q-11 56 -78 56q-43 0 -66 -30t-23 -81q0 -52 24.5 -85t63.5 -33q72 0 79 62h100q-12 -75 -61 -115.5t-117 -40.5q-90 0 -145.5 60t-55.5 152q0 89 54.5 147t144.5 58q69 0 116.5 -38.5t59.5 -111.5zM22 360q0 157 110.5 267.5t267.5 110.5t267.5 -110.5
t110.5 -267.5t-110.5 -267.5t-267.5 -110.5t-267.5 110.5t-110.5 267.5zM146 360q0 -109 74.5 -184.5t179.5 -75.5t179.5 75.5t74.5 184.5t-74.5 184.5t-179.5 75.5t-179.5 -75.5t-74.5 -184.5z" />
    <glyph glyph-name="ordfeminine" unicode="&#xaa;" horiz-adv-x="313" 
d="M287 598v-216h-100v26h-2q-3 -12 -22.5 -24t-53.5 -12q-45 0 -75 30t-30 85q0 43 31.5 75t85.5 32q36 0 54 -10q0 24 -12.5 33t-49.5 9q-16 0 -72 -8l14 74q15 0 46 2t48 2q73 0 105.5 -19.5t32.5 -78.5zM104 487q0 -41 43 -41q44 0 44 41q0 43 -44 43q-43 0 -43 -43z
" />
    <glyph glyph-name="guillemotleft" unicode="&#xab;" horiz-adv-x="556" 
d="M16 267l227 228l77 -77l-144 -151l144 -150l-77 -80zM236 267l227 228l77 -77l-144 -151l144 -150l-77 -80z" />
    <glyph glyph-name="logicalnot" unicode="&#xac;" horiz-adv-x="600" 
d="M417 126v181h-370v136h506v-317h-136z" />
    <glyph glyph-name="uni00AD" unicode="&#xad;" horiz-adv-x="334" 
d="M42 184v166h250v-166h-250z" />
    <glyph glyph-name="registered" unicode="&#xae;" horiz-adv-x="800" 
d="M260 167v377h139q77 0 115 -25.5t38 -91.5q0 -50 -27 -75t-65 -28l85 -157h-97l-76 151h-24v-151h-88zM348 474v-86h69q41 0 41 46q0 40 -61 40h-49zM22 360q0 157 110.5 267.5t267.5 110.5t267.5 -110.5t110.5 -267.5t-110.5 -267.5t-267.5 -110.5t-267.5 110.5
t-110.5 267.5zM146 360q0 -109 74.5 -184.5t179.5 -75.5t179.5 75.5t74.5 184.5t-74.5 184.5t-179.5 75.5t-179.5 -75.5t-74.5 -184.5z" />
    <glyph glyph-name="macron" unicode="&#xaf;" 
d="M-23 608v76h306v-76h-306z" />
    <glyph glyph-name="degree" unicode="&#xb0;" horiz-adv-x="400" 
d="M115 547q0 -35 25 -60t60 -25t60 25t25 60t-25 60t-60 25t-60 -25t-25 -60zM51 547q0 61 43.5 105t105.5 44t105.5 -44t43.5 -105t-43.5 -105t-105.5 -44t-105.5 44t-43.5 105z" />
    <glyph glyph-name="plusminus" unicode="&#xb1;" horiz-adv-x="600" 
d="M47 265v136h185v105h136v-105h185v-136h-185v-105h-136v105h-185zM47 0v136h506v-136h-506z" />
    <glyph glyph-name="twosuperior" unicode="&#xb2;" horiz-adv-x="337" 
d="M326 378v-100h-308l142 190l25 34.5t14 27.5t6 32q0 17 -12 28.5t-31 11.5q-18 0 -28.5 -11t-10.5 -29q0 -34 30 -40l-44 -76q-47 17 -72.5 43.5t-25.5 72.5q0 62 46 98t108 36q57 0 104.5 -33.5t47.5 -88.5q0 -35 -13 -62t-48 -77l-40 -57h110z" />
    <glyph glyph-name="threesuperior" unicode="&#xb3;" horiz-adv-x="289" 
d="M8 340l73 63q4 -12 19 -22.5t32 -10.5q37 0 37 37q0 34 -50 34h-22v82q72 0 72 38q0 35 -39 35q-25 0 -49 -30l-70 64q52 66 134 66q55 0 95.5 -32.5t40.5 -86.5q0 -64 -48 -93q23 -12 35.5 -37.5t12.5 -53.5q0 -58 -40.5 -90.5t-101.5 -32.5q-41 0 -77.5 18.5
t-53.5 51.5z" />
    <glyph glyph-name="acute" unicode="&#xb4;" 
d="M147 720h136l-120 -148h-82z" />
    <glyph glyph-name="mu" unicode="&#xb5;" horiz-adv-x="537" 
d="M43 -168v686h174v-284q0 -72 53 -72q50 0 50 72v284h174v-518h-174v48h-2q-42 -54 -101 -60v-156h-174z" />
    <glyph glyph-name="paragraph" unicode="&#xb6;" horiz-adv-x="620" 
d="M335 594v-594h-136v289q-82 10 -116.5 61t-34.5 139q0 93 50.5 143t123.5 50h314v-682h-136v594h-65z" />
    <glyph glyph-name="periodcentered" unicode="&#xb7;" horiz-adv-x="268" 
d="M43 307q0 37 26.5 64t64.5 27t64.5 -27t26.5 -64t-26.5 -64t-64.5 -27t-64.5 27t-26.5 64z" />
    <glyph glyph-name="cedilla" unicode="&#xb8;" 
d="M174 -176h-109q36 42 36 97q0 36 -11 59q2 0 24.5 -3t33.5 -3l57 6q8 -21 8 -59q0 -15 -12.5 -48.5t-26.5 -48.5z" />
    <glyph glyph-name="onesuperior" unicode="&#xb9;" horiz-adv-x="229" 
d="M192 688v-410h-106v274q-16 -12 -72 -20v110q27 5 46.5 18.5t25.5 27.5h106z" />
    <glyph glyph-name="ordmasculine" unicode="&#xba;" horiz-adv-x="350" 
d="M176 696q67 0 117.5 -48t50.5 -114q0 -67 -50.5 -114.5t-117.5 -47.5q-69 0 -119.5 47.5t-50.5 114.5q0 66 50.5 114t119.5 48zM175 596q-27 0 -45 -17.5t-18 -44.5t18 -44.5t45 -17.5t45 17.5t18 44.5t-18 44.5t-45 17.5z" />
    <glyph glyph-name="guillemotright" unicode="&#xbb;" horiz-adv-x="556" 
d="M540 267l-227 -228l-77 77l144 151l-144 150l77 80zM320 267l-227 -228l-77 77l144 151l-144 150l77 80z" />
    <glyph glyph-name="onequarter" unicode="&#xbc;" horiz-adv-x="805" 
d="M590 696l-389 -710h-82l389 710h82zM192 688v-410h-106v274q-16 -12 -72 -20v110q27 5 46.5 18.5t25.5 27.5h106zM420 82l107 328h112l-75 -228h61v94h106v-94h22v-100h-22v-82h-106v82h-205z" />
    <glyph glyph-name="onehalf" unicode="&#xbd;" horiz-adv-x="805" 
d="M590 696l-389 -710h-82l389 710h82zM192 688v-410h-106v274q-16 -12 -72 -20v110q27 5 46.5 18.5t25.5 27.5h106zM768 100v-100h-308l142 190l25 34.5t14 27.5t6 32q0 17 -12 28.5t-31 11.5q-18 0 -28.5 -11t-10.5 -29q0 -34 30 -40l-44 -76q-47 17 -72.5 43.5
t-25.5 72.5q0 62 46 98t108 36q57 0 104.5 -33.5t47.5 -88.5q0 -35 -13 -62t-48 -77l-40 -57h110z" />
    <glyph glyph-name="threequarters" unicode="&#xbe;" horiz-adv-x="805" 
d="M620 696l-389 -710h-82l389 710h82zM8 340l73 63q4 -12 19 -22.5t32 -10.5q37 0 37 37q0 34 -50 34h-22v82q72 0 72 38q0 35 -39 35q-25 0 -49 -30l-70 64q52 66 134 66q55 0 95.5 -32.5t40.5 -86.5q0 -64 -48 -93q23 -12 35.5 -37.5t12.5 -53.5q0 -58 -40.5 -90.5
t-101.5 -32.5q-41 0 -77.5 18.5t-53.5 51.5zM420 82l107 328h112l-75 -228h61v94h106v-94h22v-100h-22v-82h-106v82h-205z" />
    <glyph glyph-name="questiondown" unicode="&#xbf;" horiz-adv-x="370" 
d="M275 334v-94q0 -44 -10.5 -78t-23.5 -50t-23.5 -30.5t-10.5 -24.5q0 -39 36 -39q27 0 51 43l76 -134q-17 -47 -65.5 -75t-100.5 -28q-82 0 -135.5 51t-53.5 133q0 40 13.5 74t29.5 54.5t29.5 54.5t13.5 74v69h174zM275 562v-182h-174v182h174z" />
    <glyph glyph-name="Agrave" unicode="&#xc0;" horiz-adv-x="704" 
d="M-1 0l252 720h212l242 -720h-203l-26 80h-248l-26 -80h-203zM420 258l-67 200h-2l-65 -200h134zM199 918h136l66 -148h-82z" />
    <glyph glyph-name="Aacute" unicode="&#xc1;" horiz-adv-x="704" 
d="M-1 0l252 720h212l242 -720h-203l-26 80h-248l-26 -80h-203zM420 258l-67 200h-2l-65 -200h134zM369 918h136l-120 -148h-82z" />
    <glyph glyph-name="Acircumflex" unicode="&#xc2;" horiz-adv-x="704" 
d="M-1 0l252 720h212l242 -720h-203l-26 80h-248l-26 -80h-203zM420 258l-67 200h-2l-65 -200h134zM202 770l85 148h131l84 -148h-106l-51 90l-49 -90h-94z" />
    <glyph glyph-name="Atilde" unicode="&#xc3;" horiz-adv-x="704" 
d="M-1 0l252 720h212l242 -720h-203l-26 80h-248l-26 -80h-203zM420 258l-67 200h-2l-65 -200h134zM454 904h63q-6 -48 -31 -85t-69 -37q-30 0 -72.5 16t-57.5 16q-33 0 -36 -34h-64q13 122 106 122q27 0 70 -16t61 -16q14 0 19.5 8.5t10.5 25.5z" />
    <glyph glyph-name="Adieresis" unicode="&#xc4;" horiz-adv-x="704" 
d="M-1 0l252 720h212l242 -720h-203l-26 80h-248l-26 -80h-203zM420 258l-67 200h-2l-65 -200h134zM376 904h150v-124h-150v124zM178 904h150v-124h-150v124z" />
    <glyph glyph-name="Aring" unicode="&#xc5;" horiz-adv-x="704" 
d="M-1 0l252 720h212l242 -720h-203l-26 80h-248l-26 -80h-203zM420 258l-67 200h-2l-65 -200h134zM236 873q0 48 34 82t82 34t82 -34t34 -82t-34 -82t-82 -34t-82 34t-34 82zM306 873q0 -19 13.5 -32.5t32.5 -13.5t32.5 13.5t13.5 32.5t-13.5 32.5t-32.5 13.5t-32.5 -13.5
t-13.5 -32.5z" />
    <glyph glyph-name="AE" unicode="&#xc6;" horiz-adv-x="944" 
d="M-8 0l436 720h449l29 -190h-227v-75h148v-190h-148v-75h252l-49 -190h-392v80h-232l-45 -80h-221zM489 484l-128 -226h130v226h-2z" />
    <glyph glyph-name="Ccedilla" unicode="&#xc7;" horiz-adv-x="519" 
d="M494 211l-17 -217q-48 -12 -98 -12q-162 0 -258 110.5t-96 274.5q0 155 101 263t255 108q63 0 92 -8l13 -219q-13 11 -42 18t-50 7q-73 0 -121 -47.5t-48 -120.5q0 -91 50 -137.5t121 -46.5q64 0 98 27zM378 -194h-109q36 42 36 97q0 36 -11 59q2 0 24.5 -3t33.5 -3
q8 0 17.5 1t21.5 2.5t18 2.5q8 -21 8 -59q0 -15 -12.5 -48.5t-26.5 -48.5z" />
    <glyph glyph-name="Egrave" unicode="&#xc8;" horiz-adv-x="500" 
d="M55 0v720h386l29 -190h-227v-75h148v-190h-148v-75h252l-49 -190h-391zM97 918h136l66 -148h-82z" />
    <glyph glyph-name="Eacute" unicode="&#xc9;" horiz-adv-x="500" 
d="M55 0v720h386l29 -190h-227v-75h148v-190h-148v-75h252l-49 -190h-391zM267 918h136l-120 -148h-82z" />
    <glyph glyph-name="Ecircumflex" unicode="&#xca;" horiz-adv-x="500" 
d="M55 0v720h386l29 -190h-227v-75h148v-190h-148v-75h252l-49 -190h-391zM100 770l85 148h131l84 -148h-106l-51 90l-49 -90h-94z" />
    <glyph glyph-name="Edieresis" unicode="&#xcb;" horiz-adv-x="500" 
d="M55 0v720h386l29 -190h-227v-75h148v-190h-148v-75h252l-49 -190h-391zM274 904h150v-124h-150v124zM76 904h150v-124h-150v124z" />
    <glyph glyph-name="Igrave" unicode="&#xcc;" horiz-adv-x="278" 
d="M45 0v720h188v-720h-188zM-14 918h136l66 -148h-82z" />
    <glyph glyph-name="Iacute" unicode="&#xcd;" horiz-adv-x="278" 
d="M45 0v720h188v-720h-188zM156 918h136l-120 -148h-82z" />
    <glyph glyph-name="Icircumflex" unicode="&#xce;" horiz-adv-x="278" 
d="M45 0v720h188v-720h-188zM-11 770l85 148h131l84 -148h-106l-51 90l-49 -90h-94z" />
    <glyph glyph-name="Idieresis" unicode="&#xcf;" horiz-adv-x="278" 
d="M45 0v720h188v-720h-188zM163 904h150v-124h-150v124zM-35 904h150v-124h-150v124z" />
    <glyph glyph-name="Eth" unicode="&#xd0;" horiz-adv-x="593" 
d="M0 304v140h55v276h171q83 0 150 -31.5t108 -83t62.5 -113.5t21.5 -128q0 -156 -101 -260t-263 -104h-149v304h-55zM290 444v-140h-47v-102q133 20 133 164q0 39 -9.5 71t-41 60t-82.5 33v-86h47z" />
    <glyph glyph-name="Ntilde" unicode="&#xd1;" horiz-adv-x="648" 
d="M49 0v720h84l278 -317v317h188v-720h-90l-272 306v-306h-188zM426 904h63q-6 -48 -31 -85t-69 -37q-30 0 -72.5 16t-57.5 16q-33 0 -36 -34h-64q13 122 106 122q27 0 70 -16t61 -16q14 0 19.5 8.5t10.5 25.5z" />
    <glyph glyph-name="Ograve" unicode="&#xd2;" horiz-adv-x="778" 
d="M759 360q0 -156 -109.5 -267t-260.5 -111t-260.5 111t-109.5 267t109.5 267t260.5 111t260.5 -111t109.5 -267zM567 360q0 74 -52.5 129t-125.5 55t-125.5 -54t-52.5 -130t52.5 -130t125.5 -54t125.5 55t52.5 129zM236 918h136l66 -148h-82z" />
    <glyph glyph-name="Oacute" unicode="&#xd3;" horiz-adv-x="778" 
d="M759 360q0 -156 -109.5 -267t-260.5 -111t-260.5 111t-109.5 267t109.5 267t260.5 111t260.5 -111t109.5 -267zM567 360q0 74 -52.5 129t-125.5 55t-125.5 -54t-52.5 -130t52.5 -130t125.5 -54t125.5 55t52.5 129zM406 918h136l-120 -148h-82z" />
    <glyph glyph-name="Ocircumflex" unicode="&#xd4;" horiz-adv-x="778" 
d="M759 360q0 -156 -109.5 -267t-260.5 -111t-260.5 111t-109.5 267t109.5 267t260.5 111t260.5 -111t109.5 -267zM567 360q0 74 -52.5 129t-125.5 55t-125.5 -54t-52.5 -130t52.5 -130t125.5 -54t125.5 55t52.5 129zM239 770l85 148h131l84 -148h-106l-51 90l-49 -90h-94z
" />
    <glyph glyph-name="Otilde" unicode="&#xd5;" horiz-adv-x="778" 
d="M759 360q0 -156 -109.5 -267t-260.5 -111t-260.5 111t-109.5 267t109.5 267t260.5 111t260.5 -111t109.5 -267zM567 360q0 74 -52.5 129t-125.5 55t-125.5 -54t-52.5 -130t52.5 -130t125.5 -54t125.5 55t52.5 129zM491 904h63q-6 -48 -31 -85t-69 -37q-30 0 -72.5 16
t-57.5 16q-33 0 -36 -34h-64q13 122 106 122q26 0 70 -16t61 -16q14 0 19.5 8.5t10.5 25.5z" />
    <glyph glyph-name="Odieresis" unicode="&#xd6;" horiz-adv-x="778" 
d="M759 360q0 -156 -109.5 -267t-260.5 -111t-260.5 111t-109.5 267t109.5 267t260.5 111t260.5 -111t109.5 -267zM567 360q0 74 -52.5 129t-125.5 55t-125.5 -54t-52.5 -130t52.5 -130t125.5 -54t125.5 55t52.5 129zM413 904h150v-124h-150v124zM215 904h150v-124h-150v124
z" />
    <glyph glyph-name="multiply" unicode="&#xd7;" horiz-adv-x="600" 
d="M394 253l148 -148l-94 -94l-148 149l-148 -149l-94 94l148 148l-148 148l94 94l148 -149l148 149l94 -94z" />
    <glyph glyph-name="Oslash" unicode="&#xd8;" horiz-adv-x="778" 
d="M537 461l-255 -248q47 -37 107 -37q73 0 125.5 55t52.5 129q0 55 -30 101zM240 261l253 247q-47 36 -104 36q-73 0 -125.5 -54t-52.5 -130q0 -53 29 -99zM1 28l100 97q-82 103 -82 235q0 156 109.5 267t260.5 111q140 0 243 -95l97 95l48 -42l-101 -99q83 -104 83 -237
q0 -156 -109.5 -267t-260.5 -111q-140 0 -245 97l-95 -93z" />
    <glyph glyph-name="Ugrave" unicode="&#xd9;" horiz-adv-x="574" 
d="M40 234v486h188v-458q0 -86 59 -86t59 86v458h188v-486q0 -126 -63 -189t-184 -63t-184 63t-63 189zM134 918h136l66 -148h-82z" />
    <glyph glyph-name="Uacute" unicode="&#xda;" horiz-adv-x="574" 
d="M40 234v486h188v-458q0 -86 59 -86t59 86v458h188v-486q0 -126 -63 -189t-184 -63t-184 63t-63 189zM304 918h136l-120 -148h-82z" />
    <glyph glyph-name="Ucircumflex" unicode="&#xdb;" horiz-adv-x="574" 
d="M40 234v486h188v-458q0 -86 59 -86t59 86v458h188v-486q0 -126 -63 -189t-184 -63t-184 63t-63 189zM137 770l85 148h131l84 -148h-106l-51 90l-49 -90h-94z" />
    <glyph glyph-name="Udieresis" unicode="&#xdc;" horiz-adv-x="574" 
d="M40 234v486h188v-458q0 -86 59 -86t59 86v458h188v-486q0 -126 -63 -189t-184 -63t-184 63t-63 189zM311 904h150v-124h-150v124zM113 904h150v-124h-150v124z" />
    <glyph glyph-name="Yacute" unicode="&#xdd;" horiz-adv-x="592" 
d="M202 317l-202 403h212l84 -176l84 176h212l-202 -403v-317h-188v317zM313 918h136l-120 -148h-82z" />
    <glyph glyph-name="Thorn" unicode="&#xde;" horiz-adv-x="574" 
d="M55 0v720h188v-84h60q123 0 186.5 -70t63.5 -197q0 -139 -83 -202t-227 -61v-106h-188zM243 466v-178h36q45 0 65.5 25t20.5 64t-20.5 64t-65.5 25h-36z" />
    <glyph glyph-name="germandbls" unicode="&#xdf;" horiz-adv-x="593" 
d="M58 0v368h-48v150h48q1 22 1.5 35.5t5.5 38.5t13.5 40.5t25.5 35.5t40 32t59.5 20t82.5 8q62 0 106.5 -19t65 -49.5t29 -58t8.5 -55.5q0 -88 -76 -132v-2q74 -7 113.5 -58t39.5 -129q0 -58 -20.5 -105t-52.5 -75t-68.5 -42.5t-71.5 -14.5q-16 0 -47.5 6t-40.5 14v170
q23 -16 57 -16q35 0 59.5 21t24.5 55q0 23 -17 41t-51 18q-31 0 -50 -19l-35 149q21 10 32 16.5t24 17.5t18.5 25.5t5.5 34.5q0 24 -15 38t-36 13q-26 0 -41 -15t-15 -44v-513h-174z" />
    <glyph glyph-name="agrave" unicode="&#xe0;" horiz-adv-x="481" 
d="M63 388l21 123q110 7 142 7q112 0 162 -33t50 -130v-355h-150v38h-2q-8 -15 -37.5 -32.5t-74.5 -17.5q-68 0 -114.5 49t-46.5 133q0 71 48 123.5t131 52.5q48 0 76 -14q0 40 -18.5 54t-75.5 14q-34 0 -111 -12zM232 234q-22 0 -37.5 -15.5t-15.5 -37.5t15.5 -37.5
t37.5 -15.5t37.5 15.5t15.5 37.5t-15.5 37.5t-37.5 15.5zM88 720h136l66 -148h-82z" />
    <glyph glyph-name="aacute" unicode="&#xe1;" horiz-adv-x="481" 
d="M63 388l21 123q110 7 142 7q112 0 162 -33t50 -130v-355h-150v38h-2q-8 -15 -37.5 -32.5t-74.5 -17.5q-68 0 -114.5 49t-46.5 133q0 71 48 123.5t131 52.5q48 0 76 -14q0 40 -18.5 54t-75.5 14q-34 0 -111 -12zM232 234q-22 0 -37.5 -15.5t-15.5 -37.5t15.5 -37.5
t37.5 -15.5t37.5 15.5t15.5 37.5t-15.5 37.5t-37.5 15.5zM258 720h136l-120 -148h-82z" />
    <glyph glyph-name="acircumflex" unicode="&#xe2;" horiz-adv-x="481" 
d="M63 388l21 123q110 7 142 7q112 0 162 -33t50 -130v-355h-150v38h-2q-8 -15 -37.5 -32.5t-74.5 -17.5q-68 0 -114.5 49t-46.5 133q0 71 48 123.5t131 52.5q48 0 76 -14q0 40 -18.5 54t-75.5 14q-34 0 -111 -12zM232 234q-22 0 -37.5 -15.5t-15.5 -37.5t15.5 -37.5
t37.5 -15.5t37.5 15.5t15.5 37.5t-15.5 37.5t-37.5 15.5zM91 572l85 148h131l84 -148h-106l-51 90l-49 -90h-94z" />
    <glyph glyph-name="atilde" unicode="&#xe3;" horiz-adv-x="481" 
d="M63 388l21 123q110 7 142 7q112 0 162 -33t50 -130v-355h-150v38h-2q-8 -15 -37.5 -32.5t-74.5 -17.5q-68 0 -114.5 49t-46.5 133q0 71 48 123.5t131 52.5q48 0 76 -14q0 40 -18.5 54t-75.5 14q-34 0 -111 -12zM232 234q-22 0 -37.5 -15.5t-15.5 -37.5t15.5 -37.5
t37.5 -15.5t37.5 15.5t15.5 37.5t-15.5 37.5t-37.5 15.5zM343 706h63q-6 -48 -31 -85t-69 -37q-30 0 -72.5 16t-57.5 16q-33 0 -36 -34h-64q13 122 106 122q26 0 70 -16t61 -16q14 0 19.5 8.5t10.5 25.5z" />
    <glyph glyph-name="adieresis" unicode="&#xe4;" horiz-adv-x="481" 
d="M63 388l21 123q110 7 142 7q112 0 162 -33t50 -130v-355h-150v38h-2q-8 -15 -37.5 -32.5t-74.5 -17.5q-68 0 -114.5 49t-46.5 133q0 71 48 123.5t131 52.5q48 0 76 -14q0 40 -18.5 54t-75.5 14q-34 0 -111 -12zM232 234q-22 0 -37.5 -15.5t-15.5 -37.5t15.5 -37.5
t37.5 -15.5t37.5 15.5t15.5 37.5t-15.5 37.5t-37.5 15.5zM265 706h150v-124h-150v124zM67 706h150v-124h-150v124z" />
    <glyph glyph-name="aring" unicode="&#xe5;" horiz-adv-x="481" 
d="M63 388l21 123q110 7 142 7q112 0 162 -33t50 -130v-355h-150v38h-2q-8 -15 -37.5 -32.5t-74.5 -17.5q-68 0 -114.5 49t-46.5 133q0 71 48 123.5t131 52.5q48 0 76 -14q0 40 -18.5 54t-75.5 14q-34 0 -111 -12zM232 234q-22 0 -37.5 -15.5t-15.5 -37.5t15.5 -37.5
t37.5 -15.5t37.5 15.5t15.5 37.5t-15.5 37.5t-37.5 15.5zM125 663q0 48 34 82t82 34t82 -34t34 -82t-34 -82t-82 -34t-82 34t-34 82zM195 663q0 -19 13.5 -32.5t32.5 -13.5t32.5 13.5t13.5 32.5t-13.5 32.5t-32.5 13.5t-32.5 -13.5t-13.5 -32.5z" />
    <glyph glyph-name="ae" unicode="&#xe6;" horiz-adv-x="796" 
d="M63 388l21 124q24 0 71 3t71 3q136 0 172 -38q29 22 73 36t82 14q48 0 87 -13.5t61.5 -31.5t41 -47t25.5 -46.5t15 -44.5l-261 -185q21 -14 60 -14q42 0 88.5 22.5t73.5 51.5l12 -170q-108 -64 -207 -64q-112 0 -169 62q-59 -62 -166 -62q-95 0 -148 47.5t-53 134.5
q0 71 48 123.5t131 52.5q48 0 76 -14q0 40 -18.5 54t-75.5 14q-34 0 -111 -12zM179 181q0 -22 15.5 -37.5t37.5 -15.5t37.5 15.5t15.5 37.5t-15.5 37.5t-37.5 15.5t-37.5 -15.5t-15.5 -37.5zM452 256l141 106q-14 18 -57 18q-38 0 -63 -25.5t-25 -70.5q0 -8 4 -28z" />
    <glyph glyph-name="ccedilla" unicode="&#xe7;" horiz-adv-x="407" 
d="M382 515v-174q-21 15 -81 15q-48 0 -75 -23.5t-27 -70.5q0 -43 26 -71.5t82 -28.5q27 0 75 12v-174q-34 -12 -98 -12q-120 0 -189.5 76.5t-69.5 186.5q0 78 26 136t67.5 87.5t81.5 42.5t79 13q55 0 103 -15zM288 -188h-109q36 42 36 97q0 36 -11 59q2 0 24.5 -3t33.5 -3
l57 6q8 -21 8 -59q0 -15 -12.5 -48.5t-26.5 -48.5z" />
    <glyph glyph-name="egrave" unicode="&#xe8;" horiz-adv-x="519" 
d="M478 222l12 -170q-108 -64 -217 -64q-28 0 -59.5 7t-67.5 26.5t-64 48.5t-47 78t-19 110q0 67 25.5 120.5t66 85.5t87 49t92.5 17q48 0 87 -13.5t61.5 -31.5t41 -47t25.5 -46.5t15 -44.5l-261 -185q21 -14 60 -14q42 0 88.5 22.5t73.5 51.5zM186 256l141 106
q-14 18 -57 18q-38 0 -63 -25.5t-25 -70.5q0 -8 4 -28zM107 720h136l66 -148h-82z" />
    <glyph glyph-name="eacute" unicode="&#xe9;" horiz-adv-x="519" 
d="M478 222l12 -170q-108 -64 -217 -64q-28 0 -59.5 7t-67.5 26.5t-64 48.5t-47 78t-19 110q0 67 25.5 120.5t66 85.5t87 49t92.5 17q48 0 87 -13.5t61.5 -31.5t41 -47t25.5 -46.5t15 -44.5l-261 -185q21 -14 60 -14q42 0 88.5 22.5t73.5 51.5zM186 256l141 106
q-14 18 -57 18q-38 0 -63 -25.5t-25 -70.5q0 -8 4 -28zM277 720h136l-120 -148h-82z" />
    <glyph glyph-name="ecircumflex" unicode="&#xea;" horiz-adv-x="519" 
d="M478 222l12 -170q-108 -64 -217 -64q-28 0 -59.5 7t-67.5 26.5t-64 48.5t-47 78t-19 110q0 67 25.5 120.5t66 85.5t87 49t92.5 17q48 0 87 -13.5t61.5 -31.5t41 -47t25.5 -46.5t15 -44.5l-261 -185q21 -14 60 -14q42 0 88.5 22.5t73.5 51.5zM186 256l141 106
q-14 18 -57 18q-38 0 -63 -25.5t-25 -70.5q0 -8 4 -28zM110 572l85 148h131l84 -148h-106l-51 90l-49 -90h-94z" />
    <glyph glyph-name="edieresis" unicode="&#xeb;" horiz-adv-x="519" 
d="M478 222l12 -170q-108 -64 -217 -64q-28 0 -59.5 7t-67.5 26.5t-64 48.5t-47 78t-19 110q0 67 25.5 120.5t66 85.5t87 49t92.5 17q48 0 87 -13.5t61.5 -31.5t41 -47t25.5 -46.5t15 -44.5l-261 -185q21 -14 60 -14q42 0 88.5 22.5t73.5 51.5zM186 256l141 106
q-14 18 -57 18q-38 0 -63 -25.5t-25 -70.5q0 -8 4 -28zM284 706h150v-124h-150v124zM86 706h150v-124h-150v124z" />
    <glyph glyph-name="igrave" unicode="&#xec;" 
d="M43 0v518h174v-518h-174zM-23 720h136l66 -148h-82z" />
    <glyph glyph-name="iacute" unicode="&#xed;" 
d="M43 0v518h174v-518h-174zM147 720h136l-120 -148h-82z" />
    <glyph glyph-name="icircumflex" unicode="&#xee;" 
d="M43 0v518h174v-518h-174zM-20 572l85 148h131l84 -148h-106l-51 90l-49 -90h-94z" />
    <glyph glyph-name="idieresis" unicode="&#xef;" 
d="M43 0v518h174v-518h-174zM154 706h150v-124h-150v124zM-44 706h150v-124h-150v124z" />
    <glyph glyph-name="eth" unicode="&#xf0;" horiz-adv-x="574" 
d="M190 259q0 -41 28 -69t69 -28t69 28t28 69t-28 69t-69 28t-69 -28t-28 -69zM16 259q0 103 76 181t171 78q42 0 68 -13l2 2q-31 56 -65 92l-110 -39l-62 80l107 38q-27 31 -57 57l153 54q25 -20 58 -57l109 38l62 -80l-108 -38q138 -161 138 -375q0 -132 -81 -210.5
t-190 -78.5q-113 0 -192 79t-79 192z" />
    <glyph glyph-name="ntilde" unicode="&#xf1;" horiz-adv-x="537" 
d="M43 0v518h174v-48q55 60 127 60q62 0 106 -36.5t44 -112.5v-381h-174v284q0 72 -53 72q-50 0 -50 -72v-284h-174zM371 706h63q-6 -48 -31 -85t-69 -37q-30 0 -72.5 16t-57.5 16q-33 0 -36 -34h-64q13 122 106 122q26 0 70 -16t61 -16q14 0 19.5 8.5t10.5 25.5z" />
    <glyph glyph-name="ograve" unicode="&#xf2;" horiz-adv-x="574" 
d="M16 259q0 113 79 192t192 79t192 -79t79 -192t-79 -192t-192 -79t-192 79t-79 192zM190 259q0 -41 28 -69t69 -28t69 28t28 69t-28 69t-69 28t-69 -28t-28 -69zM134 720h136l66 -148h-82z" />
    <glyph glyph-name="oacute" unicode="&#xf3;" horiz-adv-x="574" 
d="M16 259q0 113 79 192t192 79t192 -79t79 -192t-79 -192t-192 -79t-192 79t-79 192zM190 259q0 -41 28 -69t69 -28t69 28t28 69t-28 69t-69 28t-69 -28t-28 -69zM304 720h136l-120 -148h-82z" />
    <glyph glyph-name="ocircumflex" unicode="&#xf4;" horiz-adv-x="574" 
d="M16 259q0 113 79 192t192 79t192 -79t79 -192t-79 -192t-192 -79t-192 79t-79 192zM190 259q0 -41 28 -69t69 -28t69 28t28 69t-28 69t-69 28t-69 -28t-28 -69zM137 572l85 148h131l84 -148h-106l-51 90l-49 -90h-94z" />
    <glyph glyph-name="otilde" unicode="&#xf5;" horiz-adv-x="574" 
d="M16 259q0 113 79 192t192 79t192 -79t79 -192t-79 -192t-192 -79t-192 79t-79 192zM190 259q0 -41 28 -69t69 -28t69 28t28 69t-28 69t-69 28t-69 -28t-28 -69zM389 706h63q-6 -48 -31 -85t-69 -37q-30 0 -72.5 16t-57.5 16q-33 0 -36 -34h-64q13 122 106 122
q26 0 70 -16t61 -16q14 0 19.5 8.5t10.5 25.5z" />
    <glyph glyph-name="odieresis" unicode="&#xf6;" horiz-adv-x="574" 
d="M16 259q0 113 79 192t192 79t192 -79t79 -192t-79 -192t-192 -79t-192 79t-79 192zM190 259q0 -41 28 -69t69 -28t69 28t28 69t-28 69t-69 28t-69 -28t-28 -69zM311 706h150v-124h-150v124zM113 706h150v-124h-150v124z" />
    <glyph glyph-name="divide" unicode="&#xf7;" horiz-adv-x="600" 
d="M47 194v118h506v-118h-506zM209 459q0 37 26.5 64t64.5 27t64.5 -27t26.5 -64t-26.5 -64t-64.5 -27t-64.5 27t-26.5 64zM209 47q0 37 26.5 64t64.5 27t64.5 -27t26.5 -64t-26.5 -64t-64.5 -27t-64.5 27t-26.5 64z" />
    <glyph glyph-name="oslash" unicode="&#xf8;" horiz-adv-x="574" 
d="M202 214l130 130q-20 12 -45 12q-41 0 -69 -28t-28 -69q0 -27 12 -45zM372 304l-130 -130q21 -12 45 -12q41 0 69 28t28 69q0 24 -12 45zM16 28l60 60q-60 76 -60 171q0 113 79 192t192 79q95 0 171 -60l60 60l40 -40l-60 -60q60 -76 60 -171q0 -113 -79 -192t-192 -79
q-95 0 -171 60l-60 -60z" />
    <glyph glyph-name="ugrave" unicode="&#xf9;" horiz-adv-x="537" 
d="M494 518v-518h-174v48q-55 -60 -127 -60q-62 0 -106 36.5t-44 112.5v381h174v-284q0 -72 53 -72q50 0 50 72v284h174zM116 720h136l66 -148h-82z" />
    <glyph glyph-name="uacute" unicode="&#xfa;" horiz-adv-x="537" 
d="M494 518v-518h-174v48q-55 -60 -127 -60q-62 0 -106 36.5t-44 112.5v381h174v-284q0 -72 53 -72q50 0 50 72v284h174zM286 720h136l-120 -148h-82z" />
    <glyph glyph-name="ucircumflex" unicode="&#xfb;" horiz-adv-x="537" 
d="M494 518v-518h-174v48q-55 -60 -127 -60q-62 0 -106 36.5t-44 112.5v381h174v-284q0 -72 53 -72q50 0 50 72v284h174zM119 572l85 148h131l84 -148h-106l-51 90l-49 -90h-94z" />
    <glyph glyph-name="udieresis" unicode="&#xfc;" horiz-adv-x="537" 
d="M494 518v-518h-174v48q-55 -60 -127 -60q-62 0 -106 36.5t-44 112.5v381h174v-284q0 -72 53 -72q50 0 50 72v284h174zM293 706h150v-124h-150v124zM95 706h150v-124h-150v124z" />
    <glyph glyph-name="yacute" unicode="&#xfd;" horiz-adv-x="519" 
d="M182 28l-180 490h192l74 -251h2l59 251h188l-207 -694h-188zM277 720h136l-120 -148h-82z" />
    <glyph glyph-name="thorn" unicode="&#xfe;" horiz-adv-x="611" 
d="M43 -168v888h174v-256h2q42 66 135 66q97 0 166.5 -73t69.5 -181q0 -133 -70 -210.5t-184 -77.5q-77 0 -119 42v-198h-174zM416 259q0 41 -28.5 69t-69.5 28q-40 0 -68.5 -28t-28.5 -69t28.5 -69t68.5 -28q41 0 69.5 28t28.5 69z" />
    <glyph glyph-name="ydieresis" unicode="&#xff;" horiz-adv-x="519" 
d="M182 28l-180 490h192l74 -251h2l59 251h188l-207 -694h-188zM284 706h150v-124h-150v124zM86 706h150v-124h-150v124z" />
    <glyph glyph-name="dotlessi" unicode="&#x131;" 
d="M43 0v518h174v-518h-174z" />
    <glyph glyph-name="Lslash" unicode="&#x141;" horiz-adv-x="500" 
d="M55 343v377h188v-240l143 104v-130l-143 -104v-160h252l-49 -190h-391v213l-79 -57v130z" />
    <glyph glyph-name="lslash" unicode="&#x142;" 
d="M43 360v360h174v-180l58 60v-136l-58 -60v-404h-174v224l-58 -60v136z" />
    <glyph glyph-name="OE" unicode="&#x152;" horiz-adv-x="1019" 
d="M578 0v52q-37 -35 -77.5 -52.5t-111.5 -17.5q-151 0 -260.5 111t-109.5 267t109.5 267t260.5 111q134 0 187 -76h2v58h374l29 -190h-226v-75h147v-190h-147v-75h251l-49 -190h-379zM567 360q0 74 -52.5 129t-125.5 55t-125.5 -54t-52.5 -130t52.5 -130t125.5 -54
t125.5 55t52.5 129z" />
    <glyph glyph-name="oe" unicode="&#x153;" horiz-adv-x="889" 
d="M837 222l12 -170q-108 -64 -203 -64q-63 0 -107 18.5t-77 65.5q-27 -41 -74.5 -62.5t-100.5 -21.5q-113 0 -192 79t-79 192t79 192t192 79q51 0 99.5 -20t77.5 -57q27 30 74.5 53.5t107.5 23.5q48 0 87 -13.5t61.5 -31.5t41 -47t25.5 -46.5t15 -44.5l-261 -185
q21 -14 60 -14q42 0 88.5 22.5t73.5 51.5zM190 259q0 -41 28 -69t69 -28t69 28t28 69t-28 69t-69 28t-69 -28t-28 -69zM546 256l141 106q-14 18 -57 18q-38 0 -63 -25.5t-25 -70.5q0 -8 4 -28z" />
    <glyph glyph-name="Scaron" unicode="&#x160;" horiz-adv-x="426" 
d="M388 724v-190q-14 12 -40 19t-42 7q-70 0 -70 -58q0 -23 17 -43t41.5 -38.5t49 -41t41.5 -62t17 -91.5q0 -75 -22.5 -125.5t-64 -75t-86 -34t-103.5 -9.5q-23 0 -53 3.5t-37 3.5l-5 199q57 -16 89 -16q26 0 42 14.5t16 40.5q0 23 -16 44t-38.5 40.5t-45 44t-38.5 64.5
t-16 90q0 10 1 22t6 35.5t13.5 44.5t25.5 45t40 41t59.5 28.5t81.5 11.5q75 0 137 -14zM363 918l-85 -148h-131l-84 148h106l51 -90l49 90h94z" />
    <glyph glyph-name="scaron" unicode="&#x161;" horiz-adv-x="333" 
d="M28 0v161q26 -13 52 -13q46 0 46 32q0 14 -16.5 32t-37 35.5t-37 51t-16.5 74.5q0 80 48 118.5t131 38.5q63 0 101 -4v-164q-27 18 -59 18q-16 0 -27.5 -9.5t-11.5 -25.5q0 -12 17.5 -31t39 -39t39 -55.5t17.5 -75.5q0 -156 -191 -156q-40 0 -95 12zM317 720l-85 -148
h-131l-84 148h106l51 -90l49 90h94z" />
    <glyph glyph-name="Ydieresis" unicode="&#x178;" horiz-adv-x="592" 
d="M202 317l-202 403h212l84 -176l84 176h212l-202 -403v-317h-188v317zM320 904h150v-124h-150v124zM122 904h150v-124h-150v124z" />
    <glyph glyph-name="Zcaron" unicode="&#x17d;" horiz-adv-x="556" 
d="M11 530l32 190h502l-233 -530h232l-23 -190h-499l233 530h-244zM428 918l-85 -148h-131l-84 148h106l51 -90l49 90h94z" />
    <glyph glyph-name="zcaron" unicode="&#x17e;" horiz-adv-x="444" 
d="M14 344v174h405l-150 -344h165l-34 -174h-390l145 344h-141zM372 720l-85 -148h-131l-84 148h106l51 -90l49 90h94z" />
    <glyph glyph-name="florin" unicode="&#x192;" horiz-adv-x="536" 
d="M26 -168l19 132h30q32 0 46 25t23 90l34 226h-70l20 126h70q22 265 213 265q35 0 99 -14l-32 -132q-27 6 -37 6q-17 0 -29.5 -7.5t-20 -16.5t-13.5 -29t-8 -32.5t-6 -39.5h83l-20 -126h-79l-28 -184q-9 -61 -17.5 -99.5t-25 -80t-39 -64.5t-58.5 -38t-85 -15q-52 0 -69 8
z" />
    <glyph glyph-name="circumflex" unicode="&#x2c6;" 
d="M-20 572l85 148h131l84 -148h-106l-51 90l-49 -90h-94z" />
    <glyph glyph-name="caron" unicode="&#x2c7;" 
d="M280 720l-85 -148h-131l-84 148h106l51 -90l49 90h94z" />
    <glyph glyph-name="uni02C9" unicode="&#x2c9;" 
d="M-23 608v76h306v-76h-306z" />
    <glyph glyph-name="breve" unicode="&#x2d8;" 
d="M-19 720h76q8 -39 22 -54q17 -20 51 -20t49.5 18t23.5 56h76q-3 -77 -45.5 -113.5t-103.5 -36.5t-103.5 36.5t-45.5 113.5z" />
    <glyph glyph-name="dotaccent" unicode="&#x2d9;" 
d="M55 706h150v-124h-150v124z" />
    <glyph glyph-name="ring" unicode="&#x2da;" 
d="M14 663q0 48 34 82t82 34t82 -34t34 -82t-34 -82t-82 -34t-82 34t-34 82zM84 663q0 -19 13.5 -32.5t32.5 -13.5t32.5 13.5t13.5 32.5t-13.5 32.5t-32.5 13.5t-32.5 -13.5t-13.5 -32.5z" />
    <glyph glyph-name="ogonek" unicode="&#x2db;" 
d="M73 0h115q-11 -23 -11 -59q0 -55 36 -97l-109 -12q-39 55 -39 109q0 38 8 59z" />
    <glyph glyph-name="tilde" unicode="&#x2dc;" 
d="M232 706h63q-6 -48 -31 -85t-69 -37q-30 0 -72.5 16t-57.5 16q-33 0 -36 -34h-64q13 122 106 122q27 0 70 -16t61 -16q14 0 19.5 8.5t10.5 25.5z" />
    <glyph glyph-name="hungarumlaut" unicode="&#x2dd;" 
d="M14 720h136l-120 -148h-82zM176 720h136l-120 -148h-82z" />
    <glyph glyph-name="uni03A9" unicode="&#x3a9;" horiz-adv-x="663" 
d="M142 137v3q-104 110 -104 250q0 121 82 213t213 92q71 0 128.5 -29t91 -74t51 -95t17.5 -98q0 -78 -30 -145.5t-75 -113.5v-3h119v-137h-273v101q38 24 60 82q27 67 27 177q0 87 -30.5 139.5t-86.5 52.5q-55 0 -88.5 -54.5t-33.5 -144.5q0 -99 25 -164.5t63 -87.5v-101
h-274v137h118z" />
    <glyph glyph-name="uni03BC" unicode="&#x3bc;" horiz-adv-x="537" 
d="M43 -168v686h174v-284q0 -72 53 -72q50 0 50 72v284h174v-518h-174v48h-2q-42 -54 -101 -60v-156h-174z" />
    <glyph glyph-name="pi" unicode="&#x3c0;" horiz-adv-x="605" 
d="M585 374h-59v-229q0 -85 12 -145h-164q-17 30 -17 141v233h-93q-3 -76 -17 -186.5t-36 -187.5h-164q22 92 36.5 201t14.5 173q-51 0 -82 -7l-16 113q42 39 175 39h421z" />
    <glyph glyph-name="endash" unicode="&#x2013;" horiz-adv-x="500" 
d="M500 350v-166h-500v166h500z" />
    <glyph glyph-name="emdash" unicode="&#x2014;" horiz-adv-x="1000" 
d="M0 184v166h1000v-166h-1000z" />
    <glyph glyph-name="quoteleft" unicode="&#x2018;" horiz-adv-x="242" 
d="M162 370h-166l94 350h156z" />
    <glyph glyph-name="quoteright" unicode="&#x2019;" horiz-adv-x="242" 
d="M80 720h166l-94 -350h-156z" />
    <glyph glyph-name="quotesinglbase" unicode="&#x201a;" horiz-adv-x="242" 
d="M80 182h166l-94 -350h-156z" />
    <glyph glyph-name="quotedblleft" unicode="&#x201c;" horiz-adv-x="407" 
d="M347 370h-160l92 350h152zM136 370h-160l92 350h152z" />
    <glyph glyph-name="quotedblright" unicode="&#x201d;" horiz-adv-x="407" 
d="M271 720h160l-92 -350h-152zM60 720h160l-92 -350h-152z" />
    <glyph glyph-name="quotedblbase" unicode="&#x201e;" horiz-adv-x="407" 
d="M271 182h160l-92 -350h-152zM60 182h160l-92 -350h-152z" />
    <glyph glyph-name="dagger" unicode="&#x2020;" horiz-adv-x="464" 
d="M160 582v156h144v-156h126v-140h-126v-526h-144v526h-126v140h126z" />
    <glyph glyph-name="daggerdbl" unicode="&#x2021;" horiz-adv-x="464" 
d="M160 582v156h144v-156h126v-140h-126v-232h126v-140h-126v-154h-144v154h-126v140h126v232h-126v140h126z" />
    <glyph glyph-name="bullet" unicode="&#x2022;" horiz-adv-x="500" 
d="M70 360q0 74 53 127t127 53t127 -53t53 -127t-53 -127t-127 -53t-127 53t-53 127z" />
    <glyph glyph-name="ellipsis" unicode="&#x2026;" horiz-adv-x="1000" 
d="M80 0v182h174v-182h-174zM413 0v182h174v-182h-174zM746 0v182h174v-182h-174z" />
    <glyph glyph-name="perthousand" unicode="&#x2030;" horiz-adv-x="1000" 
d="M155 396q37 0 37 100t-37 100t-37 -100t37 -100zM202 -14l204 710h76l-204 -710h-76zM845 86q37 0 37 100t-37 100t-37 -100t37 -100zM155 296q-61 0 -99 56.5t-38 143.5t38 143.5t99 56.5t99 -56.5t38 -143.5t-38 -143.5t-99 -56.5zM845 -14q-61 0 -99 56.5t-38 143.5
t38 143.5t99 56.5t99 -56.5t38 -143.5t-38 -143.5t-99 -56.5zM527 -14q-61 0 -99 56.5t-38 143.5t38 143.5t99 56.5t99 -56.5t38 -143.5t-38 -143.5t-99 -56.5zM527 86q37 0 37 100t-37 100t-37 -100t37 -100z" />
    <glyph glyph-name="guilsinglleft" unicode="&#x2039;" horiz-adv-x="352" 
d="M24 267l227 228l77 -77l-144 -151l144 -150l-77 -80z" />
    <glyph glyph-name="guilsinglright" unicode="&#x203a;" horiz-adv-x="352" 
d="M328 267l-227 -228l-77 77l144 151l-144 150l77 80z" />
    <glyph glyph-name="fraction" unicode="&#x2044;" horiz-adv-x="167" 
d="M319 696l-389 -710h-82l389 710h82z" />
    <glyph glyph-name="Euro" unicode="&#x20ac;" horiz-adv-x="536" 
d="M531 683l-30 -169q-36 14 -72 14q-95 0 -144 -75h206l-16 -88h-219q-1 -6 -1 -18q0 -24 2 -36h209l-16 -88h-161q48 -73 143 -73q37 0 69 13v-170q-49 -11 -95 -11q-116 0 -201 64.5t-118 176.5h-91l16 88h59q-2 36 -1 54h-74l16 88h73q33 112 123.5 177.5t207.5 65.5
q53 0 115 -13z" />
    <glyph glyph-name="afii61289" unicode="&#x2113;" horiz-adv-x="518" 
d="M441 207l64 -70q-74 -149 -218 -149q-161 0 -187 143q0 6 -1 9q-6 -4 -21 -15.5l-23 -17.5l-39 87l39 31t43 36v229q0 123 53.5 191.5t140.5 68.5q74 0 111 -52.5t37 -135.5q0 -145 -178 -320v-52q2 -29 19.5 -47.5t46.5 -18.5q57 0 113 83zM262 486v-92q35 46 56.5 95
t21.5 83q0 59 -37 59q-41 0 -41 -145z" />
    <glyph glyph-name="trademark" unicode="&#x2122;" horiz-adv-x="1000" 
d="M376 720v-88h-104v-324h-136v324h-104v88h344zM462 308v412h170l82 -238h2l82 238h170v-412h-124v230h-2l-74 -230h-106l-74 230h-2v-230h-124z" />
    <glyph glyph-name="Omega" unicode="&#x2126;" horiz-adv-x="663" 
d="M142 137v3q-104 110 -104 250q0 121 82 213t213 92q71 0 128.5 -29t91 -74t51 -95t17.5 -98q0 -78 -30 -145.5t-75 -113.5v-3h119v-137h-273v101q38 24 60 82q27 67 27 177q0 87 -30.5 139.5t-86.5 52.5q-55 0 -88.5 -54.5t-33.5 -144.5q0 -99 25 -164.5t63 -87.5v-101
h-274v137h118z" />
    <glyph glyph-name="estimated" unicode="&#x212e;" horiz-adv-x="856" 
d="M822 331h-639q-5 0 -5 -4v-193q0 -12 8 -22q100 -105 242 -105q152 0 254 117h57q-53 -63 -135.5 -100t-176.5 -37q-163 0 -278.5 103.5t-115.5 250.5t115.5 250.5t278.5 103.5q164 0 279.5 -103.5t115.5 -250.5v-10zM677 356v195q0 13 -10 23q-100 100 -239 100
q-140 0 -240 -103q-10 -10 -10 -25v-190q0 -6 5 -6h490q4 0 4 6z" />
    <glyph glyph-name="partialdiff" unicode="&#x2202;" horiz-adv-x="577" 
d="M101 589l-43 129q80 58 190 58q121 0 202.5 -99t81.5 -276q0 -193 -76.5 -301.5t-210.5 -108.5q-51 0 -93.5 22.5t-67.5 58.5t-38.5 76.5t-13.5 79.5q0 120 59.5 191.5t151.5 71.5q45 0 77.5 -20t45.5 -42h1v24q0 67 -38 124.5t-105 57.5q-66 0 -123 -46zM262 133h1
q36 0 59.5 52.5t30.5 111.5q-4 19 -24.5 38.5t-49.5 19.5q-37 0 -58.5 -40.5t-21.5 -95.5q0 -35 17.5 -60.5t45.5 -25.5z" />
    <glyph glyph-name="Delta" unicode="&#x2206;" horiz-adv-x="636" 
d="M21 0v93l200 603h203l189 -600v-96h-592zM196 137h237l-71 204q-6 28 -23.5 90t-21.5 81h-2q-3 -15 -19.5 -71.5t-23.5 -86.5z" />
    <glyph glyph-name="product" unicode="&#x220f;" horiz-adv-x="713" 
d="M689 530h-90v-624h-168v624h-150v-624h-168v624h-90v154h666v-154z" />
    <glyph glyph-name="summation" unicode="&#x2211;" horiz-adv-x="539" 
d="M523 -95h-500v108l206 284l-201 268v119h479v-143h-256v-3l167 -211l-192 -261v-3h297v-158z" />
    <glyph glyph-name="minus" unicode="&#x2212;" horiz-adv-x="600" 
d="M47 185v136h506v-136h-506z" />
    <glyph glyph-name="uni2215" unicode="&#x2215;" horiz-adv-x="167" 
d="M319 696l-389 -710h-82l389 710h82z" />
    <glyph glyph-name="uni2219" unicode="&#x2219;" horiz-adv-x="268" 
d="M43 307q0 37 26.5 64t64.5 27t64.5 -27t26.5 -64t-26.5 -64t-64.5 -27t-64.5 27t-26.5 64z" />
    <glyph glyph-name="radical" unicode="&#x221a;" horiz-adv-x="589" 
d="M603 829l-217 -956h-130l-131 404l-71 -29l-25 92l195 80l76 -259l22 -98l1 -2q0 3 6 44t11 67l149 657h114z" />
    <glyph glyph-name="infinity" unicode="&#x221e;" horiz-adv-x="755" 
d="M711 282v-1q0 -83 -48.5 -132t-114.5 -49q-47 0 -87 21t-82 84q-40 -53 -80.5 -79t-95.5 -26q-65 0 -112.5 48.5t-47.5 126.5q0 79 48.5 128.5t121.5 49.5q52 0 91.5 -24t77.5 -76l10 11q9 12 11.5 14t12.5 12.5t14 14l15 12.5t18 12.5l18.5 9t21.5 8t23 4.5t26 2
q67 -1 113 -48t46 -123zM214 187h2q32 0 58 21.5t57 61.5q-41 61 -59 76q-25 21 -59 21q-37 0 -59 -25t-23 -68q0 -35 24.5 -61t58.5 -26zM544 367h-1q-8 0 -15.5 -1.5t-14 -3.5t-14 -7t-12.5 -8t-12.5 -10.5l-10.5 -10.5t-10.5 -12l-9.5 -11.5t-9.5 -12.5t-8.5 -11
q40 -55 64.5 -73.5t58.5 -18.5q33 0 53 28t20 59q0 39 -21 66t-57 27z" />
    <glyph glyph-name="integral" unicode="&#x222b;" horiz-adv-x="419" 
d="M391 846l-14 -116q-20 6 -33 6q-31 0 -47 -26q-20 -28 -20 -155q0 -79 7.5 -215.5t7.5 -234.5q0 -133 -29 -195q-42 -90 -151 -90q-53 0 -85 16l18 120q23 -9 39 -9q27 0 40 17q19 28 19 137q0 99 -7.5 241t-7.5 229q0 89 15 143t48 90q46 52 134 52q33 0 66 -10z" />
    <glyph glyph-name="approxequal" unicode="&#x2248;" horiz-adv-x="517" 
d="M428 460l56 -53q-25 -49 -61.5 -78.5t-74.5 -29.5q-47 0 -102 37q-47 32 -77 32q-19 0 -36 -12.5t-23.5 -21t-23.5 -33.5l-56 53q22 45 61 75.5t84 30.5q46 0 96 -32l16 -10t14.5 -9.5t11.5 -6.5t12 -5.5t10 -3t12 -1.5q17 0 32.5 10.5t24.5 22.5t24 35zM428 265l56 -53
q-24 -49 -61 -78.5t-76 -29.5q-45 0 -101 37q-44 29 -64 32q-6 1 -13 1q-8 0 -15.5 -1.5t-15 -7t-11.5 -8t-11.5 -12l-9.5 -12t-10.5 -14.5t-9.5 -14l-56 53q21 45 60.5 75.5t84.5 30.5q44 0 96 -31q7 -4 20 -12.5t20 -12.5t17 -7.5t19 -3.5q17 0 32 10.5t24 22t25 35.5z
" />
    <glyph glyph-name="notequal" unicode="&#x2260;" horiz-adv-x="517" 
d="M393 508l-32 -76h112v-94h-146l-49 -122h195v-93h-230l-43 -106l-73 28l33 78h-117v93h150l50 122h-200v94h233l43 103z" />
    <glyph glyph-name="lessequal" unicode="&#x2264;" horiz-adv-x="517" 
d="M470 99l-422 215v102l422 215v-108l-334 -157v-2l334 -157v-108zM475 -30h-429v96h429v-96z" />
    <glyph glyph-name="greaterequal" unicode="&#x2265;" horiz-adv-x="517" 
d="M51 631l422 -215v-102l-422 -215v108l333 158v2l-333 156v108zM472 -30h-425v96h425v-96z" />
    <glyph glyph-name="lozenge" unicode="&#x25ca;" horiz-adv-x="587" 
d="M544 341l-187 -392h-135l-178 392l186 394h135zM397 338l-82 193q-15 51 -17 68h-4q-8 -35 -19 -68l-84 -186l83 -199q10 -32 16 -62h5q7 35 16 59z" />
    </font>
</defs>
</svg>
